<svg width="24" height="15" viewBox="0 0 24 15" fill="none" xmlns="http://www.w3.org/2000/svg">
<path d="M22.8975 0H4.88758C4.59137 0 4.35439 0.116506 4.14704 0.291261L0.296217 4.25242C0.118487 4.42716 0 4.6893 0.0296218 4.92231L0 10.0194C0.0296218 10.2815 0.148108 10.5145 0.296217 10.7475L4.17666 14.7086C4.35439 14.8835 4.62098 15 4.9172 15H22.9272C23.2235 15 23.4604 14.8835 23.6677 14.7086C23.8454 14.5339 23.964 14.2718 23.964 13.9805V0.990291C23.964 0.699029 23.8454 0.466007 23.6677 0.262137C23.4308 0.116506 23.1938 0 22.8975 0ZM6.01321 8.44653H5.95396C5.36153 8.44653 4.94683 8.00962 4.94683 7.45627C4.94683 6.90287 5.39115 6.46598 5.95396 6.46598H6.01321C6.60564 6.46598 7.02035 6.90287 7.02035 7.45627C7.02035 7.74753 6.90186 7.98057 6.72413 8.18442C6.51677 8.38826 6.27981 8.50479 6.01321 8.44653Z" fill="#FBB93F"/>
</svg>
