<svg width="49" height="27" viewBox="0 0 49 27" fill="none" xmlns="http://www.w3.org/2000/svg">
<path fill-rule="evenodd" clip-rule="evenodd" d="M42.6537 13.7609C42.6537 10.6544 41.1964 8.20312 38.4112 8.20312C35.6142 8.20312 33.9219 10.6544 33.9219 13.7366C33.9219 17.3892 35.9197 19.2337 38.7873 19.2337C40.1858 19.2337 41.2435 18.906 42.0426 18.4449V16.018C41.2435 16.4305 40.3268 16.6854 39.1633 16.6854C38.0234 16.6854 37.0127 16.2728 36.8834 14.8409H42.6302C42.6302 14.6831 42.6537 14.0521 42.6537 13.7609ZM36.8482 12.6081C36.8482 11.2368 37.6591 10.6665 38.3994 10.6665C39.1163 10.6665 39.8802 11.2368 39.8802 12.6081H36.8482Z" fill="#635BFF"/>
<path fill-rule="evenodd" clip-rule="evenodd" d="M29.3854 8.20312C28.2337 8.20312 27.4933 8.76133 27.082 9.14964L26.9292 8.39728H24.3438V22.5465L27.2818 21.9033L27.2935 18.4692C27.7166 18.7847 28.3395 19.2337 29.3737 19.2337C31.4773 19.2337 33.3929 17.4863 33.3929 13.6395C33.3811 10.1204 31.442 8.20312 29.3854 8.20312ZM28.6803 16.564C27.9869 16.564 27.5756 16.3092 27.2935 15.9937L27.2818 11.4917C27.5873 11.1398 28.0104 10.8971 28.6803 10.8971C29.7497 10.8971 30.4901 12.1348 30.4901 13.7245C30.4901 15.3505 29.7615 16.564 28.6803 16.564Z" fill="#635BFF"/>
<path fill-rule="evenodd" clip-rule="evenodd" d="M20.3008 7.48779L23.2506 6.83251V4.36914L20.3008 5.01229V7.48779Z" fill="#635BFF"/>
<path d="M23.2506 8.41003H20.3008V19.028H23.2506V8.41003Z" fill="#635BFF"/>
<path fill-rule="evenodd" clip-rule="evenodd" d="M17.1396 9.30857L16.9515 8.41059H14.4131V19.0286H17.3511V11.8326C18.0445 10.8982 19.2197 11.0681 19.584 11.2016V8.41059C19.208 8.26497 17.833 7.998 17.1396 9.30857Z" fill="#635BFF"/>
<path fill-rule="evenodd" clip-rule="evenodd" d="M11.2631 5.77734L8.39554 6.40836L8.38379 16.1284C8.38379 17.9243 9.68828 19.247 11.4276 19.247C12.3913 19.247 13.0964 19.065 13.4842 18.8466V16.3832C13.1081 16.5409 11.2513 17.0991 11.2513 15.3032V10.9953H13.4842V8.4106H11.2513L11.2631 5.77734Z" fill="#635BFF"/>
<path fill-rule="evenodd" clip-rule="evenodd" d="M3.31899 11.4917C3.31899 11.0184 3.69506 10.8364 4.31793 10.8364C5.21109 10.8364 6.33929 11.1155 7.23245 11.613V8.76133C6.25703 8.36088 5.29335 8.20312 4.31793 8.20312C1.93224 8.20312 0.345703 9.48942 0.345703 11.6373C0.345703 14.9865 4.81151 14.4526 4.81151 15.8966C4.81151 16.4548 4.34143 16.6368 3.68331 16.6368C2.70788 16.6368 1.46216 16.2242 0.474976 15.666V18.5541C1.56793 19.0395 2.67263 19.2458 3.68331 19.2458C6.12775 19.2458 7.80831 17.9959 7.80831 15.8238C7.79656 12.2076 3.31899 12.8508 3.31899 11.4917Z" fill="#635BFF"/>
</svg>
