<svg width="59" height="15" viewBox="0 0 59 15" fill="none" xmlns="http://www.w3.org/2000/svg">
<g clip-path="url(#clip0_15_250)">
<path d="M18.8667 3C18.7453 3 18.6421 3.08454 18.6231 3.19964L17.2176 11.7476C17.2125 11.7788 17.2145 11.8107 17.2235 11.8411C17.2325 11.8715 17.2482 11.8997 17.2696 11.9237C17.291 11.9477 17.3176 11.967 17.3476 11.9802C17.3775 11.9935 17.4101 12.0003 17.443 12.0003H19.1099C19.2311 12.0003 19.3345 11.9156 19.3534 11.8007L19.7663 9.29052C19.7851 9.17558 19.8885 9.09088 20.0099 9.09088H21.5253C23.296 9.09088 24.7992 7.85192 25.0737 6.17308C25.3505 4.48003 23.9713 3.00368 22.0165 3H18.8667ZM20.487 4.90822H21.6996C22.6978 4.90822 23.0229 5.47307 22.9201 6.09773C22.8173 6.72372 22.3124 7.18482 21.3468 7.18482H20.1127L20.487 4.90822ZM28.4639 5.48928C28.043 5.49078 27.5587 5.57348 27.015 5.79066C25.7678 6.28919 25.1688 7.31948 24.9145 8.07061C24.9145 8.07061 24.1049 10.3622 25.934 11.6212C25.934 11.6212 27.6303 12.8333 29.5398 11.5466L29.5069 11.7476C29.5018 11.7787 29.5038 11.8106 29.5128 11.841C29.5217 11.8714 29.5374 11.8996 29.5588 11.9236C29.5802 11.9476 29.6067 11.9669 29.6366 11.9801C29.6665 11.9934 29.699 12.0003 29.732 12.0003H31.3143C31.4358 12.0003 31.5389 11.9156 31.5579 11.8007L32.5204 5.94704C32.5256 5.91581 32.5236 5.88389 32.5147 5.85346C32.5058 5.82304 32.4901 5.79483 32.4687 5.77077C32.4473 5.74672 32.4207 5.7274 32.3908 5.71413C32.3609 5.70087 32.3283 5.69398 32.2953 5.69393H30.713C30.5915 5.69393 30.4882 5.77863 30.4694 5.89358L30.4177 6.20866C30.4177 6.20866 29.7267 5.48477 28.4639 5.48928ZM28.5156 7.33819C28.6973 7.33819 28.8635 7.36225 29.0127 7.40819C29.6954 7.61836 30.0825 8.24736 29.9705 8.92916C29.8323 9.76866 29.1144 10.3868 28.1937 10.3868C28.0122 10.3868 27.846 10.3629 27.6967 10.317C27.0141 10.1068 26.6246 9.4778 26.7366 8.79601C26.8747 7.9565 27.5949 7.33819 28.5156 7.33819Z" fill="#003087"/>
<path d="M41.6538 3C41.5324 3 41.4292 3.08454 41.4103 3.19964L40.0047 11.7476C39.9996 11.7788 40.0016 11.8107 40.0106 11.8411C40.0196 11.8715 40.0353 11.8997 40.0567 11.9237C40.0782 11.9477 40.1048 11.967 40.1347 11.9802C40.1646 11.9935 40.1972 12.0003 40.2301 12.0003H41.897C42.0183 12.0003 42.1216 11.9156 42.1406 11.8007L42.5534 9.29052C42.5723 9.17558 42.6756 9.09088 42.797 9.09088H44.3125C46.0832 9.09088 47.5861 7.85192 47.8605 6.17308C48.1375 4.48003 46.7584 3.00368 44.8036 3H41.6538ZM43.2742 4.90822H44.4867C45.4849 4.90822 45.81 5.47307 45.7072 6.09773C45.6044 6.72372 45.0997 7.18482 44.1339 7.18482H42.8998L43.2742 4.90822ZM51.2508 5.48928C50.8299 5.49078 50.3456 5.57348 49.8019 5.79066C48.5547 6.28919 47.9558 7.31948 47.7014 8.07061C47.7014 8.07061 46.8922 10.3622 48.7213 11.6212C48.7213 11.6212 50.4172 12.8333 52.3269 11.5466L52.294 11.7476C52.2889 11.7788 52.2909 11.8107 52.2999 11.8411C52.3089 11.8715 52.3246 11.8997 52.346 11.9237C52.3675 11.9477 52.394 11.967 52.424 11.9802C52.4539 11.9935 52.4865 12.0003 52.5194 12.0003H54.1016C54.2231 12.0003 54.3262 11.9156 54.3452 11.8007L55.3081 5.94704C55.3132 5.91579 55.3113 5.88384 55.3023 5.85338C55.2933 5.82293 55.2776 5.79471 55.2562 5.77065C55.2348 5.74659 55.2081 5.72727 55.1782 5.71403C55.1482 5.70079 55.1156 5.69393 55.0826 5.69393H53.5003C53.3788 5.69393 53.2755 5.77863 53.2567 5.89358L53.205 6.20866C53.205 6.20866 52.5137 5.48477 51.2508 5.48928ZM51.3026 7.33819C51.4843 7.33819 51.6505 7.36225 51.7996 7.40819C52.4823 7.61836 52.8694 8.24736 52.7574 8.92916C52.6193 9.76866 51.9013 10.3868 50.9806 10.3868C50.7991 10.3868 50.6329 10.3629 50.4836 10.317C49.801 10.1068 49.4115 9.4778 49.5235 8.79601C49.6617 7.9565 50.3818 7.33819 51.3026 7.33819Z" fill="#0070E0"/>
<path d="M33.2712 5.69337C33.1458 5.69337 33.0566 5.81082 33.0949 5.92526L34.8297 11.0878L33.2611 13.5206C33.185 13.6387 33.2735 13.7912 33.4183 13.7912H35.2722C35.3252 13.7912 35.3774 13.778 35.4235 13.753C35.4697 13.728 35.5084 13.692 35.5358 13.6485L40.3808 5.96235C40.4552 5.84423 40.3664 5.69321 40.2225 5.69321H38.3687C38.3151 5.69325 38.2625 5.70666 38.216 5.73212C38.1695 5.75757 38.1308 5.7942 38.1035 5.83839L36.1964 8.92609L35.2283 5.86127C35.1968 5.76154 35.1008 5.69321 34.9923 5.69321L33.2712 5.69337Z" fill="#003087"/>
<path d="M57.1054 3C56.9841 3 56.8808 3.0847 56.8618 3.19964L55.4559 11.7472C55.4508 11.7785 55.4527 11.8104 55.4617 11.8409C55.4707 11.8713 55.4864 11.8995 55.5078 11.9236C55.5292 11.9477 55.5558 11.967 55.5858 11.9802C55.6158 11.9935 55.6484 12.0003 55.6814 12.0003H57.3482C57.4695 12.0003 57.5728 11.9156 57.5918 11.8007L58.9973 3.25277C59.0024 3.22157 59.0004 3.18969 58.9915 3.1593C58.9825 3.12891 58.9668 3.10075 58.9454 3.07673C58.924 3.05272 58.8975 3.03343 58.8676 3.02018C58.8377 3.00694 58.8052 3.00005 58.7722 3H57.1054Z" fill="#0070E0"/>
<path d="M4.97032 3C4.86294 3.00009 4.75912 3.03689 4.67751 3.1038C4.59589 3.17071 4.54182 3.26333 4.52503 3.36504L3.78516 7.86512C3.81965 7.65495 4.00849 7.50008 4.23044 7.50008H6.39851C8.58052 7.50008 10.432 5.9736 10.7704 3.90499C10.7955 3.75056 10.8098 3.59466 10.8131 3.43838C10.2585 3.15955 9.60715 3 8.89341 3H4.97032Z" fill="#001C64"/>
<path d="M10.8127 3.4375C10.8095 3.59378 10.7952 3.74968 10.77 3.90411C10.4317 5.97272 8.57999 7.4992 6.39816 7.4992H4.23008C4.00831 7.4992 3.81929 7.6539 3.7848 7.86424L3.1045 11.9994L2.67838 14.5936C2.67006 14.6438 2.67318 14.695 2.68752 14.7439C2.70186 14.7927 2.7271 14.838 2.76146 14.8766C2.79583 14.9152 2.83852 14.9462 2.88658 14.9674C2.93465 14.9886 2.98695 14.9996 3.03987 14.9996H5.39313C5.5005 14.9995 5.60432 14.9627 5.68594 14.8958C5.76756 14.8289 5.82162 14.7363 5.83841 14.6346L6.45826 10.8644C6.47506 10.7626 6.52917 10.67 6.61086 10.603C6.69255 10.5361 6.79646 10.4994 6.9039 10.4994H8.28941C10.4714 10.4994 12.3229 8.97288 12.6613 6.90428C12.9015 5.43611 12.1304 4.10008 10.8127 3.4375Z" fill="#0070E0"/>
<path d="M2.29648 0C2.07471 0 1.8857 0.154703 1.8512 0.364704L0.00454489 11.5942C-0.0304718 11.8074 0.141306 12.0002 0.366389 12.0002H3.10483L3.78479 7.86495L4.52466 3.36487C4.54145 3.26316 4.59552 3.17054 4.67714 3.10363C4.75875 3.03672 4.86257 2.99991 4.96995 2.99983H8.89304C9.60696 2.99983 10.2582 3.15954 10.8127 3.43821C10.8507 1.55488 9.23014 0 7.00213 0H2.29648Z" fill="#003087"/>
</g>
<defs>
<clipPath id="clip0_15_250">
<rect width="59" height="15" fill="white"/>
</clipPath>
</defs>
</svg>
