<svg width="34" height="26" viewBox="0 0 34 26" fill="none" xmlns="http://www.w3.org/2000/svg">
<g clip-path="url(#clip0_15_239)">
<path d="M2.12497 0.379028H31.875C33.0481 0.379028 34 1.36225 34 2.57489V23.4256C34 24.6371 33.0481 25.6203 31.875 25.6203H2.12497C0.950906 25.6204 0 24.6371 0 23.4257V2.57489C0 1.36225 0.951955 0.379028 2.12497 0.379028Z" fill="#26A6D1"/>
<path d="M5.48254 9.15833L2.125 16.8325H6.14444L6.64273 15.6089H7.78172L8.28002 16.8325H12.7043V15.8986L13.0985 16.8325H15.3871L15.7813 15.8789V16.8325H24.9826L26.1015 15.6407L27.1491 16.8325L31.8751 16.8424L28.5069 13.0168L31.8751 9.15833H27.2224L26.1333 10.3281L25.1186 9.15833H15.1088L14.2493 11.1391L13.3696 9.15833H9.35852V10.0604L8.91232 9.15833H5.48254ZM6.26027 10.2481H8.21953L10.4466 15.452V10.2481H12.5929L14.313 13.9792L15.8983 10.2481H18.0339V15.7548H16.7345L16.7238 11.4398L14.8294 15.7548H13.667L11.7619 11.4398V15.7548H9.08863L8.58183 14.5203H5.84379L5.33803 15.7537H3.90573L6.26027 10.2481ZM19.2228 10.2481H24.5066L26.1227 12.0511L27.7908 10.2481H29.4069L26.9514 13.0158L29.4069 15.7516H27.7175L26.1015 13.9276L24.4248 15.7516H19.2228V10.2481ZM7.21339 11.1798L6.31131 13.379H8.11442L7.21339 11.1798ZM20.5276 11.3882V12.3935H23.4101V13.5139H20.5276V14.6114H23.7608L25.2631 12.9949L23.8245 11.3873H20.5276V11.3882Z" fill="white"/>
</g>
<defs>
<clipPath id="clip0_15_239">
<rect width="34" height="26" fill="white"/>
</clipPath>
</defs>
</svg>
