<svg width="41" height="27" viewBox="0 0 41 27" fill="none" xmlns="http://www.w3.org/2000/svg">
<path d="M36.4241 1.29297H2.98166C1.79499 1.29297 0.833008 2.25976 0.833008 3.45237V23.562C0.833008 24.7546 1.79499 25.7214 2.98166 25.7214H36.4241C37.6107 25.7214 38.5727 24.7546 38.5727 23.562V3.45237C38.5727 2.25976 37.6107 1.29297 36.4241 1.29297Z" fill="#F9F9F9" stroke="black" stroke-width="0.8" stroke-linecap="round" stroke-linejoin="round"/>
<path d="M3.1748 10.9151H4.89447C5.28222 10.9151 5.57796 10.9505 5.78169 11.0211C6.05498 11.1173 6.28883 11.2886 6.4838 11.5339C6.67877 11.7792 6.82718 12.08 6.92905 12.4352C7.03037 12.791 7.0813 13.2292 7.0813 13.7505C7.0813 14.2084 7.03366 14.6034 6.93891 14.935C6.82171 15.3405 6.65577 15.6676 6.43944 15.9181C6.27623 16.1077 6.05607 16.2562 5.77841 16.3628C5.57029 16.4413 5.29317 16.4805 4.94595 16.4805H3.1748V10.9151ZM4.1157 11.857V15.5426H4.81835C5.08123 15.5426 5.27072 15.525 5.38737 15.489C5.53962 15.4432 5.66668 15.3667 5.76691 15.2575C5.86768 15.1489 5.94983 14.9697 6.01336 14.7211C6.07688 14.4713 6.10865 14.1318 6.10865 13.7008C6.10865 13.2711 6.07688 12.9408 6.01336 12.7106C5.94983 12.4803 5.8611 12.3005 5.74664 12.1716C5.62456 12.038 5.47384 11.9474 5.31125 11.91C5.17981 11.874 4.9224 11.8564 4.53904 11.8564L4.1157 11.857ZM7.85406 16.4799V10.9151H8.7944V16.4799H7.85406ZM9.44941 14.6695L10.3651 14.5629C10.4199 14.9298 10.5316 15.1992 10.7003 15.3713C10.8684 15.5439 11.0957 15.6296 11.3821 15.6296C11.685 15.6296 11.9134 15.5531 12.0667 15.4C12.2206 15.247 12.2973 15.0678 12.2973 14.8631C12.3 14.7407 12.2656 14.6213 12.2003 14.5269C12.1357 14.4346 12.0229 14.3542 11.8619 14.2862C11.7518 14.2404 11.5004 14.1593 11.1088 14.0429C10.6044 13.8937 10.2506 13.7099 10.0469 13.4928C9.76103 13.186 9.61809 12.8126 9.61809 12.3724C9.61809 12.0892 9.68545 11.8243 9.81963 11.5777C9.95436 11.3305 10.1482 11.1428 10.4013 11.0139C10.6548 10.8844 10.9599 10.8203 11.3186 10.8203C11.9035 10.8203 12.3433 10.9734 12.639 11.2795C12.9348 11.5856 13.0897 11.9943 13.1045 12.5058L12.1636 12.5549C12.1237 12.2691 12.0377 12.063 11.9046 11.9381C11.7726 11.8125 11.5738 11.7504 11.3087 11.7504C11.0355 11.7504 10.8213 11.8171 10.6669 11.9512C10.6197 11.9892 10.5813 12.0407 10.5552 12.1011C10.5291 12.1614 10.5161 12.2286 10.5174 12.2965C10.5174 12.4286 10.5639 12.5411 10.657 12.6347C10.7759 12.7537 11.0639 12.8773 11.5223 13.0068C11.9796 13.1357 12.3181 13.2691 12.5371 13.4071C12.7562 13.5445 12.9282 13.7342 13.052 13.9729C13.1763 14.2116 13.2382 14.5072 13.2382 14.8591C13.2382 15.1777 13.1642 15.4766 13.0158 15.7552C12.8674 16.0332 12.6576 16.2405 12.386 16.3759C12.1149 16.5113 11.777 16.5787 11.3728 16.5787C10.7835 16.5787 10.3312 16.4158 10.0152 16.0907C9.6997 15.7657 9.5113 15.2921 9.44941 14.6695ZM17.0176 14.434L17.9295 14.7793C17.7898 15.387 17.5571 15.8376 17.2323 16.1332C16.907 16.4276 16.494 16.5747 15.994 16.5747C15.3752 16.5747 14.8669 16.3223 14.4682 15.8173C14.0701 15.3131 13.8713 14.6224 13.8713 13.7466C13.8713 12.8204 14.0712 12.1016 14.4715 11.5888C14.8718 11.0767 15.3987 10.8203 16.051 10.8203C16.6211 10.8203 17.0844 11.0211 17.4404 11.424C17.6523 11.6614 17.8112 12.0035 17.9169 12.4489L16.9858 12.7145C16.9311 12.426 16.8161 12.1978 16.6408 12.031C16.4656 11.8642 16.2536 11.7805 16.0033 11.7805C15.6583 11.7805 15.3779 11.9283 15.1627 12.2252C14.948 12.5209 14.8401 13.0003 14.8401 13.6635C14.8401 14.3666 14.9463 14.8683 15.1577 15.1665C15.3702 15.4654 15.6452 15.6146 15.9847 15.6146C16.2344 15.6146 16.4497 15.5197 16.6299 15.33C16.81 15.1404 16.9393 14.8415 17.0176 14.434ZM18.5494 13.7315C18.5494 13.1651 18.6206 12.689 18.763 12.3044C18.8687 12.0212 19.0133 11.7667 19.1962 11.5411C19.3797 11.3161 19.5807 11.1486 19.7986 11.0401C20.0889 10.8936 20.4235 10.8203 20.8031 10.8203C21.4898 10.8203 22.0391 11.0748 22.4515 11.583C22.8634 12.0918 23.0693 12.7995 23.0693 13.7054C23.0693 14.6034 22.865 15.3065 22.4559 15.8141C22.0468 16.321 21.5002 16.5747 20.8157 16.5747C20.1229 16.5747 19.5725 16.3223 19.1628 15.8173C18.7543 15.3131 18.5494 14.6171 18.5494 13.7315ZM19.5188 13.6936C19.5188 14.3241 19.6409 14.8016 19.8846 15.1267C20.1283 15.4517 20.4378 15.6146 20.8124 15.6146C21.1875 15.6146 21.4953 15.453 21.7357 15.1306C21.9767 14.8081 22.0972 14.3241 22.0972 13.6786C22.0972 13.0408 21.9795 12.5653 21.7456 12.2514C21.5112 11.9374 21.2007 11.7805 20.8124 11.7805C20.4246 11.7805 20.1125 11.9394 19.8748 12.2573C19.6376 12.5745 19.5188 13.0533 19.5188 13.6936ZM24.9894 16.4799L23.3234 10.9151H24.3437L25.5234 15.0338L26.6642 10.9151H27.6626L25.9938 16.4799H24.9894ZM28.1489 16.4799V10.9151H31.6036V11.857H29.0898V13.0899H31.4289V14.0278H29.0892V15.5426H31.6928V16.4799H28.1489ZM32.5001 16.4799V10.9151H34.4805C34.9783 10.9151 35.3403 10.9649 35.5659 11.0656C35.7916 11.165 35.9723 11.3429 36.1081 11.5986C36.2434 11.8537 36.3108 12.1461 36.3108 12.4751C36.3108 12.893 36.2084 13.2377 36.003 13.5098C35.7971 13.7819 35.4898 13.9533 35.0813 14.0239C35.2844 14.1658 35.4526 14.3215 35.5851 14.4909C35.7171 14.661 35.8956 14.9618 36.1202 15.3942L36.6898 16.4799H35.5643L34.8841 15.2692C34.6426 14.8362 34.4772 14.5635 34.3879 14.4517C34.3107 14.3483 34.2138 14.2686 34.1053 14.2195C34.0056 14.1776 33.8479 14.1567 33.6316 14.1567H33.441V16.4799H32.5001ZM33.441 13.2685H34.1365C34.5884 13.2685 34.8704 13.2456 34.9827 13.2004C35.09 13.1591 35.1827 13.0763 35.2461 12.965C35.3096 12.8538 35.3414 12.7145 35.3414 12.547C35.3414 12.36 35.2998 12.2089 35.216 12.0938C35.1322 11.9786 35.0144 11.9061 34.8616 11.8753C34.785 11.8622 34.5566 11.8564 34.1749 11.8564H33.441V13.2685Z" fill="#1A1A1A"/>
<path fill-rule="evenodd" clip-rule="evenodd" d="M23.9428 13.761C23.9484 14.1575 23.8755 14.5512 23.7284 14.9192C23.5813 15.2872 23.3628 15.6221 23.0858 15.9045C22.8087 16.1869 22.4786 16.4112 22.1145 16.5643C21.7505 16.7173 21.3598 16.7962 20.9652 16.7962C20.5706 16.7962 20.1799 16.7173 19.8159 16.5643C19.4519 16.4112 19.1217 16.1869 18.8447 15.9045C18.5676 15.6221 18.3492 15.2872 18.202 14.9192C18.0549 14.5512 17.982 14.1575 17.9876 13.761C17.9987 12.9747 18.3173 12.2243 18.8745 11.6722C19.4317 11.1201 20.1827 10.8105 20.9652 10.8105C21.7477 10.8105 22.4988 11.1201 23.056 11.6722C23.6132 12.2243 23.9317 12.9747 23.9428 13.761Z" fill="#FC8100"/>
<path d="M38.3345 16.7109L11.1327 24.9789L10.1816 25.4853H36.3166C37.507 25.4853 38.3345 24.6993 38.3345 23.5035V16.7109Z" fill="#FC8100"/>
</svg>
