<svg width="114" height="118" viewBox="0 0 114 118" fill="none" xmlns="http://www.w3.org/2000/svg">
<path d="M3.08656 53.3523C1.00439 50.8492 0 47.8456 0 44.9136C0 42.0528 0.932759 39.1921 2.65599 36.904C4.37919 34.5445 6.96351 32.7555 10.0501 31.8986L14.9315 30.611C16.1516 30.3247 16.9411 29.2528 16.9411 28.0356V27.6067L16.6538 22.8867V22.1002C16.6538 18.3095 18.2328 14.877 20.6747 12.5175C23.1159 10.0857 26.4897 8.6563 30.0785 8.6563C31.7301 8.6563 33.3808 8.94256 34.9599 9.58549L39.698 11.3734L40.7032 11.5884C41.5653 11.5884 42.4264 11.1595 43.0002 10.3007L45.7287 6.08173C48.313 2.07611 52.7648 -0.0687053 56.9996 0.00176606C61.3073 -0.0704824 65.6862 2.07597 68.3422 6.07989L71.0706 10.3709C71.5736 11.1574 72.434 11.5863 73.3678 11.5863L74.3003 11.3714L79.0385 9.58348C80.6902 8.93963 82.3407 8.6543 83.9199 8.6543C87.5088 8.6543 90.8836 10.0846 93.3237 12.5155C95.7646 14.875 97.4155 18.3082 97.3447 22.0982V22.8134L97.0572 27.8911V28.0355C97.0572 29.251 97.9193 30.3237 99.0668 30.6109L104.021 31.8986C107.107 32.7574 109.691 34.5445 111.344 36.904C113.067 39.1921 114 42.0528 114 44.9136C114 47.8456 112.995 50.8492 110.985 53.3523L107.754 57.2857L107.181 59.0021L107.754 60.6474L110.985 64.5811C113.067 67.0843 114 70.1589 114 73.0198C114 75.9514 113.067 78.7411 111.344 81.0292C109.621 83.3888 107.109 85.1776 104.021 86.0346L99.0668 87.3204C97.9901 87.6066 97.128 88.6787 97.0572 89.7524V89.8951V90.0394L97.3447 95.1172V95.1867L97.4172 95.8306C97.4172 99.6213 95.7655 103.054 93.3253 105.413C90.8844 107.845 87.5105 109.274 83.9216 109.274C82.3428 109.274 80.6911 108.988 79.0401 108.345L74.302 106.557L73.3695 106.342C72.4365 106.342 71.5748 106.771 71.0723 107.558L68.3443 111.849C65.6862 115.855 61.3073 118 56.9996 118C52.7644 118 48.313 115.855 45.7287 111.849L42.9294 107.559C42.4264 106.772 41.5661 106.343 40.704 106.343L39.6987 106.558L34.9607 108.346C33.3816 108.99 31.7301 109.275 30.0792 109.275C26.4905 109.275 23.1884 107.845 20.6755 105.414C18.2343 103.055 16.6545 99.6213 16.6545 95.8311L16.727 95.1168H16.6545L16.9419 90.0394V89.8968C16.9419 88.7515 16.1523 87.6083 14.9322 87.3213L10.0508 86.0337C6.96238 85.1747 4.37898 83.3867 2.65674 81.0263C0.933555 78.7382 0.000749508 75.9485 0.000749508 73.0165C0.000749508 70.156 1.00601 67.0813 3.0873 64.5782L3.01478 64.5791L6.2454 60.6457L6.89172 59.0004L6.2454 57.2836L3.08656 53.3523Z" fill="#FBB93F"/>
<path d="M52.0216 65.743L42.4104 55.6766L38.9766 59.2087L52.0216 72.808L75.0207 49.1414L71.5881 45.6094L52.0216 65.743Z" fill="white"/>
</svg>
