<svg width="561" height="155" viewBox="0 0 561 155" fill="none" xmlns="http://www.w3.org/2000/svg">
<mask id="path-1-outside-1_1_3" maskUnits="userSpaceOnUse" x="-139" y="-1" width="701" height="157" fill="black">
<rect fill="white" x="-139" y="-1" width="701" height="157"/>
<path d="M-18.26 0.559995V30.7H-59.18V155H-96.8V30.7H-137.72V0.559995H-18.26ZM79.3805 155L47.2605 96.7H38.2405V155H0.620469V0.559995H63.7605C75.9338 0.559995 86.2738 2.68666 94.7805 6.93999C103.434 11.1933 109.887 17.06 114.14 24.54C118.394 31.8733 120.52 40.0867 120.52 49.18C120.52 59.4467 117.587 68.6133 111.72 76.68C106 84.7467 97.4938 90.4667 86.2005 93.84L121.84 155H79.3805ZM38.2405 70.08H61.5605C68.4538 70.08 73.5871 68.3933 76.9605 65.02C80.4805 61.6467 82.2405 56.88 82.2405 50.72C82.2405 44.8533 80.4805 40.2333 76.9605 36.86C73.5871 33.4867 68.4538 31.8 61.5605 31.8H38.2405V70.08ZM240.276 127.72H182.636L173.396 155H134.016L189.896 0.559995H233.456L289.336 155H249.516L240.276 127.72ZM230.596 98.68L211.456 42.14L192.536 98.68H230.596ZM364.203 0.559995C380.483 0.559995 394.71 3.78666 406.883 10.24C419.056 16.6933 428.443 25.7867 435.043 37.52C441.79 49.1067 445.163 62.5267 445.163 77.78C445.163 92.8867 441.79 106.307 435.043 118.04C428.443 129.773 418.983 138.867 406.663 145.32C394.49 151.773 380.336 155 364.203 155H306.343V0.559995H364.203ZM361.783 122.44C376.01 122.44 387.083 118.553 395.003 110.78C402.923 103.007 406.883 92.0067 406.883 77.78C406.883 63.5533 402.923 52.48 395.003 44.56C387.083 36.64 376.01 32.68 361.783 32.68H343.963V122.44H361.783ZM503.807 30.7V61.94H554.187V90.98H503.807V124.86H560.787V155H466.187V0.559995H560.787V30.7H503.807Z"/>
</mask>
<path d="M-18.26 0.559995H-17.26V-0.440005H-18.26V0.559995ZM-18.26 30.7V31.7H-17.26V30.7H-18.26ZM-59.18 30.7V29.7H-60.18V30.7H-59.18ZM-59.18 155V156H-58.18V155H-59.18ZM-96.8 155H-97.8V156H-96.8V155ZM-96.8 30.7H-95.8V29.7H-96.8V30.7ZM-137.72 30.7H-138.72V31.7H-137.72V30.7ZM-137.72 0.559995V-0.440005H-138.72V0.559995H-137.72ZM-19.26 0.559995V30.7H-17.26V0.559995H-19.26ZM-18.26 29.7H-59.18V31.7H-18.26V29.7ZM-60.18 30.7V155H-58.18V30.7H-60.18ZM-59.18 154H-96.8V156H-59.18V154ZM-95.8 155V30.7H-97.8V155H-95.8ZM-96.8 29.7H-137.72V31.7H-96.8V29.7ZM-136.72 30.7V0.559995H-138.72V30.7H-136.72ZM-137.72 1.56H-18.26V-0.440005H-137.72V1.56ZM79.3805 155L78.5046 155.483L78.7897 156H79.3805V155ZM47.2605 96.7L48.1363 96.2174L47.8513 95.7H47.2605V96.7ZM38.2405 96.7V95.7H37.2405V96.7H38.2405ZM38.2405 155V156H39.2405V155H38.2405ZM0.620469 155H-0.379531V156H0.620469V155ZM0.620469 0.559995V-0.440005H-0.379531V0.559995H0.620469ZM94.7805 6.93999L94.3332 7.83444L94.3394 7.83744L94.7805 6.93999ZM114.14 24.54L113.271 25.0343L113.275 25.0417L114.14 24.54ZM111.72 76.68L110.912 76.0918L110.905 76.1016L111.72 76.68ZM86.2005 93.84L85.9143 92.8818L84.6967 93.2455L85.3365 94.3435L86.2005 93.84ZM121.84 155V156H123.581L122.704 154.497L121.84 155ZM38.2405 70.08H37.2405V71.08H38.2405V70.08ZM76.9605 65.02L76.2686 64.298L76.2609 64.3054L76.2534 64.3129L76.9605 65.02ZM76.9605 36.86L76.2534 37.5671L76.2609 37.5746L76.2686 37.582L76.9605 36.86ZM38.2405 31.8V30.8H37.2405V31.8H38.2405ZM80.2563 154.517L48.1363 96.2174L46.3846 97.1825L78.5046 155.483L80.2563 154.517ZM47.2605 95.7H38.2405V97.7H47.2605V95.7ZM37.2405 96.7V155H39.2405V96.7H37.2405ZM38.2405 154H0.620469V156H38.2405V154ZM1.62047 155V0.559995H-0.379531V155H1.62047ZM0.620469 1.56H63.7605V-0.440005H0.620469V1.56ZM63.7605 1.56C75.8207 1.56 85.9988 3.66718 94.3333 7.83442L95.2277 6.04556C86.5488 1.70614 76.0469 -0.440005 63.7605 -0.440005V1.56ZM94.3394 7.83744C102.835 12.0134 109.129 17.7492 113.271 25.0343L115.01 24.0457C110.646 16.3708 104.032 10.3732 95.2216 6.04254L94.3394 7.83744ZM113.275 25.0417C117.434 32.2116 119.52 40.2496 119.52 49.18H121.52C121.52 39.9237 119.354 31.5351 115.006 24.0383L113.275 25.0417ZM119.52 49.18C119.52 59.2419 116.65 68.2014 110.912 76.0918L112.529 77.2682C118.524 69.0253 121.52 59.6514 121.52 49.18H119.52ZM110.905 76.1016C105.337 83.9529 97.0362 89.5597 85.9143 92.8818L86.4867 94.7982C97.9514 91.3736 106.664 85.5404 112.536 77.2584L110.905 76.1016ZM85.3365 94.3435L120.976 155.503L122.704 154.497L87.0645 93.3365L85.3365 94.3435ZM121.84 154H79.3805V156H121.84V154ZM38.2405 71.08H61.5605V69.08H38.2405V71.08ZM61.5605 71.08C68.6007 71.08 74.037 69.3577 77.6676 65.7271L76.2534 64.3129C73.1373 67.4289 68.3069 69.08 61.5605 69.08V71.08ZM77.6524 65.742C81.4181 62.1332 83.2405 57.0765 83.2405 50.72H81.2405C81.2405 56.6835 79.5429 61.1602 76.2686 64.298L77.6524 65.742ZM83.2405 50.72C83.2405 44.6404 81.4085 39.7376 77.6524 36.138L76.2686 37.582C79.5525 40.7291 81.2405 45.0663 81.2405 50.72H83.2405ZM77.6676 36.1529C74.037 32.5223 68.6007 30.8 61.5605 30.8V32.8C68.3069 32.8 73.1373 34.451 76.2534 37.5671L77.6676 36.1529ZM61.5605 30.8H38.2405V32.8H61.5605V30.8ZM37.2405 31.8V70.08H39.2405V31.8H37.2405ZM240.276 127.72L241.223 127.399L240.993 126.72H240.276V127.72ZM182.636 127.72V126.72H181.919L181.689 127.399L182.636 127.72ZM173.396 155V156H174.113L174.343 155.321L173.396 155ZM134.016 155L133.076 154.66L132.591 156H134.016V155ZM189.896 0.559995V-0.440005H189.194L188.956 0.219758L189.896 0.559995ZM233.456 0.559995L234.396 0.219758L234.158 -0.440005H233.456V0.559995ZM289.336 155V156H290.761L290.276 154.66L289.336 155ZM249.516 155L248.569 155.321L248.799 156H249.516V155ZM230.596 98.68V99.68H231.99L231.543 98.3594L230.596 98.68ZM211.456 42.14L212.403 41.8194L211.451 39.0051L210.508 41.8227L211.456 42.14ZM192.536 98.68L191.588 98.3627L191.147 99.68H192.536V98.68ZM240.276 126.72H182.636V128.72H240.276V126.72ZM181.689 127.399L172.449 154.679L174.343 155.321L183.583 128.041L181.689 127.399ZM173.396 154H134.016V156H173.396V154ZM134.956 155.34L190.836 0.900232L188.956 0.219758L133.076 154.66L134.956 155.34ZM189.896 1.56H233.456V-0.440005H189.896V1.56ZM232.516 0.900232L288.396 155.34L290.276 154.66L234.396 0.219758L232.516 0.900232ZM289.336 154H249.516V156H289.336V154ZM250.463 154.679L241.223 127.399L239.329 128.041L248.569 155.321L250.463 154.679ZM231.543 98.3594L212.403 41.8194L210.509 42.4606L229.649 99.0006L231.543 98.3594ZM210.508 41.8227L191.588 98.3627L193.484 98.9973L212.404 42.4573L210.508 41.8227ZM192.536 99.68H230.596V97.68H192.536V99.68ZM406.883 10.24L407.352 9.35646L407.352 9.35646L406.883 10.24ZM435.043 37.52L434.172 38.0103L434.175 38.0167L434.179 38.0232L435.043 37.52ZM435.043 118.04L434.176 117.542L434.172 117.55L435.043 118.04ZM406.663 145.32L406.199 144.434L406.195 144.436L406.663 145.32ZM306.343 155H305.343V156H306.343V155ZM306.343 0.559995V-0.440005H305.343V0.559995H306.343ZM343.963 32.68V31.68H342.963V32.68H343.963ZM343.963 122.44H342.963V123.44H343.963V122.44ZM364.203 1.56C380.349 1.56 394.41 4.75943 406.415 11.1235L407.352 9.35646C395.01 2.81389 380.617 -0.440005 364.203 -0.440005V1.56ZM406.415 11.1235C418.423 17.4893 427.668 26.448 434.172 38.0103L435.915 37.0297C429.218 25.1253 419.69 15.8973 407.352 9.35646L406.415 11.1235ZM434.179 38.0232C440.825 49.437 444.163 62.6787 444.163 77.78H446.163C446.163 62.3746 442.755 48.7763 435.907 37.0168L434.179 38.0232ZM444.163 77.78C444.163 92.7325 440.826 105.977 434.176 117.542L435.91 118.538C442.754 106.636 446.163 93.0408 446.163 77.78H444.163ZM434.172 117.55C427.67 129.109 418.354 138.067 406.199 144.434L407.127 146.206C419.612 139.666 429.217 130.438 435.915 118.53L434.172 117.55ZM406.195 144.436C394.189 150.801 380.201 154 364.203 154V156C380.472 156 394.791 152.745 407.132 146.204L406.195 144.436ZM364.203 154H306.343V156H364.203V154ZM307.343 155V0.559995H305.343V155H307.343ZM306.343 1.56H364.203V-0.440005H306.343V1.56ZM361.783 123.44C376.195 123.44 387.548 119.498 395.704 111.494L394.303 110.066C386.618 117.608 375.825 121.44 361.783 121.44V123.44ZM395.704 111.494C403.865 103.483 407.883 92.1956 407.883 77.78H405.883C405.883 91.8177 401.981 102.53 394.303 110.066L395.704 111.494ZM407.883 77.78C407.883 63.3634 403.865 52.0077 395.71 43.8529L394.296 45.2671C401.981 52.9523 405.883 63.7433 405.883 77.78H407.883ZM395.71 43.8529C387.555 35.6981 376.2 31.68 361.783 31.68V33.68C375.82 33.68 386.611 37.5819 394.296 45.2671L395.71 43.8529ZM361.783 31.68H343.963V33.68H361.783V31.68ZM342.963 32.68V122.44H344.963V32.68H342.963ZM343.963 123.44H361.783V121.44H343.963V123.44ZM503.807 30.7V29.7H502.807V30.7H503.807ZM503.807 61.94H502.807V62.94H503.807V61.94ZM554.187 61.94H555.187V60.94H554.187V61.94ZM554.187 90.98V91.98H555.187V90.98H554.187ZM503.807 90.98V89.98H502.807V90.98H503.807ZM503.807 124.86H502.807V125.86H503.807V124.86ZM560.787 124.86H561.787V123.86H560.787V124.86ZM560.787 155V156H561.787V155H560.787ZM466.187 155H465.187V156H466.187V155ZM466.187 0.559995V-0.440005H465.187V0.559995H466.187ZM560.787 0.559995H561.787V-0.440005H560.787V0.559995ZM560.787 30.7V31.7H561.787V30.7H560.787ZM502.807 30.7V61.94H504.807V30.7H502.807ZM503.807 62.94H554.187V60.94H503.807V62.94ZM553.187 61.94V90.98H555.187V61.94H553.187ZM554.187 89.98H503.807V91.98H554.187V89.98ZM502.807 90.98V124.86H504.807V90.98H502.807ZM503.807 125.86H560.787V123.86H503.807V125.86ZM559.787 124.86V155H561.787V124.86H559.787ZM560.787 154H466.187V156H560.787V154ZM467.187 155V0.559995H465.187V155H467.187ZM466.187 1.56H560.787V-0.440005H466.187V1.56ZM559.787 0.559995V30.7H561.787V0.559995H559.787ZM560.787 29.7H503.807V31.7H560.787V29.7Z" fill="#F1F1F1" mask="url(#path-1-outside-1_1_3)"/>
</svg>
